<svg width="500" height="500" viewBox="0 0 500 500" fill="none" xmlns="http://www.w3.org/2000/svg">
<path fill-rule="evenodd" clip-rule="evenodd" d="M212.882 1.26939C192.882 4.37805 169.419 14.1355 156.984 24.5135C150.526 29.9024 149.737 28.3088 171.519 53.8206L188.503 73.7103L193.873 69.6143C222.666 47.6599 265.956 58.9229 281.926 92.5229C300.71 132.043 270.739 180.712 227.62 180.712H221.485V210.049V239.386L232.905 238.299C320.243 229.984 371.074 143.868 334.287 66.5387C312.584 20.9214 261.867 -6.34636 212.882 1.26939Z" fill="black"/>
<path fill-rule="evenodd" clip-rule="evenodd" d="M213.489 261.883C193.489 264.992 170.025 274.75 157.59 285.128C151.133 290.517 150.344 288.923 172.125 314.435L189.11 334.324L194.48 330.228C223.273 308.274 266.563 319.537 282.533 353.137C301.316 392.657 271.345 441.326 228.227 441.326H222.091V470.663V500L233.512 498.913C320.85 490.598 371.681 404.482 334.893 327.153C313.191 281.535 262.473 254.268 213.489 261.883Z" fill="black"/>
</svg>
