<svg width="500" height="500" viewBox="0 0 500 500" fill="none" xmlns="http://www.w3.org/2000/svg">
<path fill-rule="evenodd" clip-rule="evenodd" d="M95 34.2466V68.4932H209.689H324.377V34.2466V0H209.689H95V34.2466ZM201.13 125C166.662 128.39 137.164 139.334 109.122 159.135C94.0157 169.801 94.115 170.002 140.478 222.363C140.778 222.702 146.671 219.202 153.572 214.584C246.086 152.688 366.769 247.358 328.787 352.031C313.191 395.012 264.832 431.507 223.473 431.507H218.247V465.753V500L225.522 499.993C296.886 499.926 371.442 445.022 395.518 374.807C440.071 244.866 336.435 111.687 201.13 125Z" fill="black"/>
</svg>
