<svg width="500" height="500" viewBox="0 0 500 500" fill="none" xmlns="http://www.w3.org/2000/svg">
<path fill-rule="evenodd" clip-rule="evenodd" d="M227.808 81.8217C196.013 127.382 169.791 165.482 169.537 166.487C168.962 168.745 214.446 200.628 215.933 199.01C219.08 195.585 331.577 33.3031 331.577 32.1899C331.577 31.1728 296.21 5.47643 287.288 0.00935305C286.256 -0.621637 263.49 30.6905 227.808 81.8217ZM221.855 230.047C135.554 248.266 89.1401 343.489 127.71 423.196C177.261 525.601 323.564 525.601 373.115 423.196C422.473 321.194 332.758 206.634 221.855 230.047ZM269.261 286.56C324.397 300.906 347.686 365.991 313.755 410.901C272.991 464.852 189.927 447.313 173.039 381.19C158.931 325.961 213.697 272.101 269.261 286.56Z" fill="black"/>
</svg>
