<svg width="500" height="500" viewBox="0 0 500 500" fill="none" xmlns="http://www.w3.org/2000/svg">
<path fill-rule="evenodd" clip-rule="evenodd" d="M82 37.9624V75.9249H160.733H239.467V37.9624V0H160.733H82V37.9624ZM345.818 11.2983C340.497 23.6614 314.421 85.1244 256.659 221.447C236.017 270.166 204.078 345.413 185.685 388.663C167.291 431.913 151.861 468.221 151.397 469.349C150.887 470.586 163.72 476.955 183.696 485.384C201.926 493.076 217.333 499.651 217.932 499.996C218.531 500.341 228.225 478.891 239.474 452.326C305.123 297.293 383.5 112.36 399.996 73.5676C410.481 48.9065 418.569 28.2386 417.969 27.6385C416.236 25.9085 355.141 0 352.794 0C351.632 0 348.491 5.08516 345.818 11.2983Z" fill="black"/>
</svg>
