<svg width="500" height="500" viewBox="0 0 500 500" fill="none" xmlns="http://www.w3.org/2000/svg">
<path fill-rule="evenodd" clip-rule="evenodd" d="M225.372 2.44668C143.92 17.9538 91.012 98.6159 109.794 178.654L112.711 191.087H147.235H181.757L178.386 185.634C148.958 138.03 181.833 71.1697 238.865 62.6333C302.875 53.0541 353.973 122.48 325.436 180.258L320.088 191.087H354.188H388.287L391.204 178.654C414.718 78.4548 325.284 -16.5754 225.372 2.44668ZM224.021 214.247C127.818 233.349 77.672 337.525 123.151 423.803C176.704 525.399 324.293 525.399 377.846 423.803C433.811 317.632 340.886 191.041 224.021 214.247ZM269.017 275.348C332.612 291.578 354.851 366.975 309.837 413.747C258.59 466.995 168.756 431.125 168.05 357.131C167.535 303.12 217.923 262.307 269.017 275.348Z" fill="black"/>
</svg>
